STARTFONT 2.1
FONT -Adobe-ITC Lubalin Graph-Demi-O-Normal--17-120-100-100-P-92-ISO8859-1
SIZE 12 100 100
FONTBOUNDINGBOX 22 20 -3 -4

STARTPROPERTIES 25
FONTNAME_REGISTRY ""
FAMILY_NAME "ITC Lubalin Graph"
FOUNDRY "Adobe"
WEIGHT_NAME "Demi"
SLANT "O"
SETWIDTH_NAME "Normal"
ADD_STYLE_NAME ""
PIXEL_SIZE 17
POINT_SIZE 120
RESOLUTION_X 100
RESOLUTION_Y 100
SPACING "P"
AVERAGE_WIDTH 92
CHARSET_REGISTRY "ISO8859"
CHARSET_ENCODING "1"
CHARSET_COLLECTIONS "ASCII ISO8859-1 ADOBE-STANDARD"
FULL_NAME "ITC Lubalin Graph Demi Oblique"
COPYRIGHT "Copyright (c) 1987 Adobe Systems, Inc., Portions Copyright 1988 Digital Equipment Corp."
CAP_HEIGHT 12
X_HEIGHT 9
WEIGHT 10
QUAD_WIDTH 9
DEFAULT_CHAR 32
FONT_DESCENT 4
FONT_ASCENT 14
ENDPROPERTIES

CHARS 190

STARTCHAR space
ENCODING 32
SWIDTH 300 0
DWIDTH 4 0
BBX 1 1 0 0
BITMAP
00
ENDCHAR

STARTCHAR exclam
ENCODING 33
SWIDTH 200 0
DWIDTH 3 0
BBX 4 12 0 0
BITMAP
30
30
30
20
60
60
40
C0
C0
00
C0
C0
ENDCHAR

STARTCHAR quotedbl
ENCODING 34
SWIDTH 400 0
DWIDTH 6 0
BBX 6 5 1 7
BITMAP
6C
6C
48
D8
D8
ENDCHAR

STARTCHAR numbersign
ENCODING 35
SWIDTH 660 0
DWIDTH 9 0
BBX 9 12 1 0
BITMAP
0D80
0D80
1B00
1B00
7F80
3600
3600
FF00
6C00
6C00
D800
D800
ENDCHAR

STARTCHAR dollar
ENCODING 36
SWIDTH 580 0
DWIDTH 9 0
BBX 9 16 0 -2
BITMAP
0600
0600
0F80
1F80
3980
3180
3800
1C00
0C00
0600
C600
FE00
FC00
D800
1800
1800
ENDCHAR

STARTCHAR percent
ENCODING 37
SWIDTH 860 0
DWIDTH 14 0
BBX 11 12 2 0
BITMAP
30C0
7980
C980
9B00
F600
6600
0CC0
0DE0
1B20
3260
33C0
6180
ENDCHAR

STARTCHAR ampersand
ENCODING 38
SWIDTH 720 0
DWIDTH 11 0
BBX 11 12 0 0
BITMAP
0F00
1F80
3980
3300
1E00
1C60
3EE0
6780
C300
C700
FDC0
79C0
ENDCHAR

STARTCHAR quoteright
ENCODING 39
SWIDTH 200 0
DWIDTH 3 0
BBX 3 5 1 7
BITMAP
60
E0
60
40
80
ENDCHAR

STARTCHAR parenleft
ENCODING 40
SWIDTH 360 0
DWIDTH 6 0
BBX 7 14 1 -2
BITMAP
06
1E
38
30
60
60
E0
C0
C0
C0
C0
E0
70
30
ENDCHAR

STARTCHAR parenright
ENCODING 41
SWIDTH 360 0
DWIDTH 6 0
BBX 7 14 -1 -2
BITMAP
18
1C
0E
06
06
06
06
0E
0C
0C
18
38
F0
C0
ENDCHAR

STARTCHAR asterisk
ENCODING 42
SWIDTH 360 0
DWIDTH 6 0
BBX 5 5 2 7
BITMAP
28
30
F8
60
A0
ENDCHAR

STARTCHAR plus
ENCODING 43
SWIDTH 660 0
DWIDTH 11 0
BBX 7 8 2 1
BITMAP
18
18
18
FE
FE
30
30
30
ENDCHAR

STARTCHAR comma
ENCODING 44
SWIDTH 300 0
DWIDTH 4 0
BBX 3 5 0 -3
BITMAP
60
E0
60
40
80
ENDCHAR

STARTCHAR minus
ENCODING 45
SWIDTH 660 0
DWIDTH 11 0
BBX 8 2 2 4
BITMAP
FF
FF
ENDCHAR

STARTCHAR period
ENCODING 46
SWIDTH 300 0
DWIDTH 4 0
BBX 2 2 1 0
BITMAP
C0
C0
ENDCHAR

STARTCHAR slash
ENCODING 47
SWIDTH 580 0
DWIDTH 9 0
BBX 12 15 -2 -3
BITMAP
0030
0060
00C0
00C0
0180
0300
0300
0600
0C00
0C00
1800
3000
3000
6000
C000
ENDCHAR

STARTCHAR zero
ENCODING 48
SWIDTH 580 0
DWIDTH 9 0
BBX 10 12 0 0
BITMAP
0F00
1F80
39C0
30C0
60C0
6180
6180
C180
C300
E700
7E00
3C00
ENDCHAR

STARTCHAR one
ENCODING 49
SWIDTH 580 0
DWIDTH 9 0
BBX 6 12 1 0
BITMAP
3C
3C
0C
0C
18
18
18
30
30
30
FC
FC
ENDCHAR

STARTCHAR two
ENCODING 50
SWIDTH 580 0
DWIDTH 9 0
BBX 10 12 0 0
BITMAP
0F00
1F80
39C0
30C0
01C0
0380
0F00
3C00
7000
E300
FF00
FF00
ENDCHAR

STARTCHAR three
ENCODING 51
SWIDTH 580 0
DWIDTH 9 0
BBX 10 12 0 0
BITMAP
0F00
1F80
39C0
30C0
0180
0F00
0F80
0180
C180
E380
7F00
3E00
ENDCHAR

STARTCHAR four
ENCODING 52
SWIDTH 580 0
DWIDTH 9 0
BBX 9 12 0 0
BITMAP
0380
0780
0F80
1980
1100
3300
6300
FF80
FF80
0600
0F00
0F00
ENDCHAR

STARTCHAR five
ENCODING 53
SWIDTH 580 0
DWIDTH 9 0
BBX 9 12 0 0
BITMAP
1F80
1F80
3800
3000
3E00
7F00
6380
0180
C180
C300
7F00
3C00
ENDCHAR

STARTCHAR six
ENCODING 54
SWIDTH 580 0
DWIDTH 9 0
BBX 9 12 0 0
BITMAP
0380
0700
0E00
1C00
3800
7F00
7380
C180
C180
E300
7F00
3C00
ENDCHAR

STARTCHAR seven
ENCODING 55
SWIDTH 580 0
DWIDTH 9 0
BBX 8 12 2 0
BITMAP
FF
FF
C3
C6
0E
0C
18
38
30
60
E0
C0
ENDCHAR

STARTCHAR eight
ENCODING 56
SWIDTH 580 0
DWIDTH 9 0
BBX 10 12 0 0
BITMAP
0F00
1F80
39C0
30C0
3980
1F00
3F00
6380
C180
E300
7F00
3C00
ENDCHAR

STARTCHAR nine
ENCODING 57
SWIDTH 580 0
DWIDTH 9 0
BBX 9 12 1 0
BITMAP
1E00
7F00
6380
C180
C180
E700
7F00
0E00
1C00
3800
7000
E000
ENDCHAR

STARTCHAR colon
ENCODING 58
SWIDTH 300 0
DWIDTH 4 0
BBX 3 8 1 0
BITMAP
60
60
00
00
00
00
C0
C0
ENDCHAR

STARTCHAR semicolon
ENCODING 59
SWIDTH 300 0
DWIDTH 4 0
BBX 4 11 0 -3
BITMAP
30
30
00
00
00
00
60
E0
60
40
80
ENDCHAR

STARTCHAR less
ENCODING 60
SWIDTH 660 0
DWIDTH 11 0
BBX 9 9 2 1
BITMAP
0080
0380
1E00
7800
C000
7000
1800
0E00
0200
ENDCHAR

STARTCHAR equal
ENCODING 61
SWIDTH 660 0
DWIDTH 11 0
BBX 9 5 1 3
BITMAP
7F80
7F80
0000
FF00
FF00
ENDCHAR

STARTCHAR greater
ENCODING 62
SWIDTH 660 0
DWIDTH 11 0
BBX 9 9 1 1
BITMAP
2000
3800
0C00
0700
0180
0F00
3C00
E000
8000
ENDCHAR

STARTCHAR question
ENCODING 63
SWIDTH 540 0
DWIDTH 8 0
BBX 7 12 1 0
BITMAP
38
7C
C6
C6
06
0C
38
60
60
00
C0
C0
ENDCHAR

STARTCHAR at
ENCODING 64
SWIDTH 880 0
DWIDTH 14 0
BBX 12 12 2 0
BITMAP
0F80
38E0
6030
C690
CB90
9910
9330
9B20
9CE0
C000
6180
3F00
ENDCHAR

STARTCHAR A
ENCODING 65
SWIDTH 780 0
DWIDTH 12 0
BBX 12 12 0 0
BITMAP
0780
0780
0380
0780
04C0
0CC0
18C0
3FE0
3FE0
6060
F0F0
F0F0
ENDCHAR

STARTCHAR B
ENCODING 66
SWIDTH 600 0
DWIDTH 9 0
BBX 10 12 0 0
BITMAP
3F80
3FC0
18C0
18C0
3180
3F00
3F00
3180
6180
6380
FF00
FE00
ENDCHAR

STARTCHAR C
ENCODING 67
SWIDTH 760 0
DWIDTH 12 0
BBX 12 12 1 0
BITMAP
0FB0
3FF0
70E0
6060
E000
C000
C000
C000
C0C0
E1C0
7F80
3E00
ENDCHAR

STARTCHAR D
ENCODING 68
SWIDTH 740 0
DWIDTH 12 0
BBX 12 12 0 0
BITMAP
3FC0
3FE0
1870
1830
3030
3030
3030
3060
6060
61C0
FF80
FE00
ENDCHAR

STARTCHAR E
ENCODING 69
SWIDTH 580 0
DWIDTH 9 0
BBX 11 12 0 0
BITMAP
3FE0
3FE0
18C0
18C0
3000
3E00
3E00
3000
6180
6180
FF00
FF00
ENDCHAR

STARTCHAR F
ENCODING 70
SWIDTH 580 0
DWIDTH 9 0
BBX 11 12 0 0
BITMAP
3FE0
3FE0
18C0
18C0
3000
3E00
3E00
3000
6000
6000
F000
F000
ENDCHAR

STARTCHAR G
ENCODING 71
SWIDTH 780 0
DWIDTH 12 0
BBX 12 12 1 0
BITMAP
0FB0
3FF0
70E0
6060
E000
C000
C7E0
C7E0
C0C0
E1C0
7FC0
3EC0
ENDCHAR

STARTCHAR H
ENCODING 72
SWIDTH 740 0
DWIDTH 12 0
BBX 13 12 0 0
BITMAP
3C78
3C78
1830
1830
3060
3FE0
3FE0
3060
60C0
60C0
F1E0
F1E0
ENDCHAR

STARTCHAR I
ENCODING 73
SWIDTH 340 0
DWIDTH 5 0
BBX 6 12 0 0
BITMAP
3C
3C
18
18
30
30
30
30
60
60
F0
F0
ENDCHAR

STARTCHAR J
ENCODING 74
SWIDTH 540 0
DWIDTH 9 0
BBX 11 12 0 0
BITMAP
07E0
07E0
0180
0180
0300
0300
0300
0300
C600
C600
FE00
7C00
ENDCHAR

STARTCHAR K
ENCODING 75
SWIDTH 720 0
DWIDTH 11 0
BBX 12 12 0 0
BITMAP
3DF0
3DF0
18C0
1980
3300
3E00
3E00
3700
6300
6380
F7E0
F7E0
ENDCHAR

STARTCHAR L
ENCODING 76
SWIDTH 560 0
DWIDTH 9 0
BBX 9 12 0 0
BITMAP
3E00
3E00
1800
1800
3000
3000
3000
3000
6180
6180
FF00
FF00
ENDCHAR

STARTCHAR M
ENCODING 77
SWIDTH 960 0
DWIDTH 15 0
BBX 16 12 0 0
BITMAP
3C0F
3C0F
1C1E
1E3E
3634
366C
366C
36D8
6798
6398
F33C
F33C
ENDCHAR

STARTCHAR N
ENCODING 78
SWIDTH 800 0
DWIDTH 13 0
BBX 14 12 0 0
BITMAP
3C3C
3C3C
1E18
1E18
1730
3330
33B0
31B0
61E0
60E0
F0E0
F060
ENDCHAR

STARTCHAR O
ENCODING 79
SWIDTH 780 0
DWIDTH 12 0
BBX 11 12 1 0
BITMAP
0F80
1FC0
78E0
6060
E060
C060
C060
C0E0
C0C0
E180
7F80
3E00
ENDCHAR

STARTCHAR P
ENCODING 80
SWIDTH 600 0
DWIDTH 10 0
BBX 11 12 0 0
BITMAP
3F80
3FC0
18E0
1860
3060
30C0
3FC0
3F00
6000
6000
F000
F000
ENDCHAR

STARTCHAR Q
ENCODING 81
SWIDTH 860 0
DWIDTH 13 0
BBX 12 12 1 0
BITMAP
0F80
3FC0
70E0
6060
E060
C060
F860
FEC0
C7C0
E190
7FF0
3EF0
ENDCHAR

STARTCHAR R
ENCODING 82
SWIDTH 640 0
DWIDTH 10 0
BBX 11 12 0 0
BITMAP
3F80
3FC0
18E0
1860
3060
31C0
3F80
3600
6700
6300
F3C0
F1C0
ENDCHAR

STARTCHAR S
ENCODING 83
SWIDTH 520 0
DWIDTH 9 0
BBX 10 12 0 0
BITMAP
0EC0
1FC0
39C0
30C0
3800
1E00
0700
0300
C300
E700
FE00
DC00
ENDCHAR

STARTCHAR T
ENCODING 84
SWIDTH 600 0
DWIDTH 9 0
BBX 8 12 2 0
BITMAP
FF
FF
DB
DB
30
30
30
30
60
60
F0
F0
ENDCHAR

STARTCHAR U
ENCODING 85
SWIDTH 700 0
DWIDTH 11 0
BBX 11 12 1 0
BITMAP
79E0
79E0
30C0
30C0
6180
6180
6180
C300
C300
C700
FE00
7C00
ENDCHAR

STARTCHAR V
ENCODING 86
SWIDTH 740 0
DWIDTH 12 0
BBX 11 12 2 0
BITMAP
F1E0
F1E0
60C0
6180
6180
6300
3300
3600
3600
3C00
3C00
3800
ENDCHAR

STARTCHAR W
ENCODING 87
SWIDTH 1020 0
DWIDTH 16 0
BBX 15 12 2 0
BITMAP
F39E
F39E
638C
6798
6798
6DB0
6DB0
69A0
79E0
71C0
71C0
6180
ENDCHAR

STARTCHAR X
ENCODING 88
SWIDTH 740 0
DWIDTH 12 0
BBX 13 12 0 0
BITMAP
3EF8
3EF8
1870
0CE0
0F80
0700
0700
0F80
3980
70C0
FBE0
FBE0
ENDCHAR

STARTCHAR Y
ENCODING 89
SWIDTH 680 0
DWIDTH 11 0
BBX 10 12 2 0
BITMAP
F3C0
F3C0
6180
3300
3E00
1C00
1800
1800
3000
3000
F800
F800
ENDCHAR

STARTCHAR Z
ENCODING 90
SWIDTH 560 0
DWIDTH 9 0
BBX 10 12 0 0
BITMAP
3FC0
3FC0
31C0
3380
0700
0E00
1C00
3800
7300
E300
FF00
FF00
ENDCHAR

STARTCHAR bracketleft
ENCODING 91
SWIDTH 380 0
DWIDTH 6 0
BBX 7 14 0 -2
BITMAP
1E
1E
18
18
30
30
30
60
60
60
C0
C0
F0
F0
ENDCHAR

STARTCHAR backslash
ENCODING 92
SWIDTH 620 0
DWIDTH 10 0
BBX 4 12 4 0
BITMAP
C0
C0
C0
C0
60
60
60
60
30
30
30
30
ENDCHAR

STARTCHAR bracketright
ENCODING 93
SWIDTH 380 0
DWIDTH 6 0
BBX 7 14 -1 -2
BITMAP
1E
1E
06
06
0C
0C
0C
18
18
18
30
30
F0
F0
ENDCHAR

STARTCHAR asciicircum
ENCODING 94
SWIDTH 660 0
DWIDTH 11 0
BBX 9 9 1 3
BITMAP
0600
0E00
0E00
1B00
1B00
3300
6180
6180
C180
ENDCHAR

STARTCHAR underscore
ENCODING 95
SWIDTH 500 0
DWIDTH 8 0
BBX 8 2 -1 -2
BITMAP
FF
FF
ENDCHAR

STARTCHAR quoteleft
ENCODING 96
SWIDTH 200 0
DWIDTH 3 0
BBX 3 5 1 7
BITMAP
20
40
C0
E0
C0
ENDCHAR

STARTCHAR a
ENCODING 97
SWIDTH 660 0
DWIDTH 11 0
BBX 12 9 0 0
BITMAP
0F70
3FF0
71C0
60C0
C0C0
C180
E380
7FC0
3DC0
ENDCHAR

STARTCHAR b
ENCODING 98
SWIDTH 660 0
DWIDTH 11 0
BBX 11 12 0 0
BITMAP
3800
3800
1800
1B80
3FC0
38E0
3060
6060
60C0
71C0
FF80
EE00
ENDCHAR

STARTCHAR c
ENCODING 99
SWIDTH 580 0
DWIDTH 9 0
BBX 10 9 0 0
BITMAP
0EC0
3FC0
7180
6000
C000
C000
E300
7F00
3C00
ENDCHAR

STARTCHAR d
ENCODING 100
SWIDTH 660 0
DWIDTH 11 0
BBX 11 12 0 0
BITMAP
00E0
00E0
0060
0F60
3FC0
71C0
60C0
C0C0
C180
E380
7FC0
3DC0
ENDCHAR

STARTCHAR e
ENCODING 101
SWIDTH 580 0
DWIDTH 9 0
BBX 9 9 0 0
BITMAP
1E00
7F00
6380
E380
FF80
C000
E300
7F00
3C00
ENDCHAR

STARTCHAR f
ENCODING 102
SWIDTH 320 0
DWIDTH 5 0
BBX 7 12 0 0
BITMAP
0E
1E
18
7C
7C
30
30
60
60
60
F0
F0
ENDCHAR

STARTCHAR g
ENCODING 103
SWIDTH 660 0
DWIDTH 10 0
BBX 12 12 -1 -3
BITMAP
0F70
3FF0
31C0
70C0
60C0
6180
7380
3F80
1D80
C300
FF00
7C00
ENDCHAR

STARTCHAR h
ENCODING 104
SWIDTH 640 0
DWIDTH 10 0
BBX 9 12 0 0
BITMAP
3800
3800
1800
1F00
1F80
3980
3180
3180
6300
6300
F780
F780
ENDCHAR

STARTCHAR i
ENCODING 105
SWIDTH 300 0
DWIDTH 5 0
BBX 5 12 0 0
BITMAP
18
18
00
70
70
30
30
60
60
60
F0
F0
ENDCHAR

STARTCHAR j
ENCODING 106
SWIDTH 280 0
DWIDTH 4 0
BBX 6 15 -1 -3
BITMAP
0C
0C
00
38
38
18
18
30
30
30
30
60
60
E0
C0
ENDCHAR

STARTCHAR k
ENCODING 107
SWIDTH 600 0
DWIDTH 10 0
BBX 10 12 0 0
BITMAP
3800
3800
1800
1BC0
33C0
3300
3600
3C00
6C00
6600
F780
F780
ENDCHAR

STARTCHAR l
ENCODING 108
SWIDTH 300 0
DWIDTH 5 0
BBX 5 12 0 0
BITMAP
38
38
18
18
30
30
30
30
60
60
F0
F0
ENDCHAR

STARTCHAR m
ENCODING 109
SWIDTH 980 0
DWIDTH 15 0
BBX 14 9 0 0
BITMAP
7738
7FFC
39CC
318C
318C
6318
6318
F7BC
F7BC
ENDCHAR

STARTCHAR n
ENCODING 110
SWIDTH 640 0
DWIDTH 10 0
BBX 9 9 0 0
BITMAP
7700
7F80
3980
3180
3180
6300
6300
F780
F780
ENDCHAR

STARTCHAR o
ENCODING 111
SWIDTH 580 0
DWIDTH 10 0
BBX 10 9 0 0
BITMAP
0F00
3F80
71C0
60C0
C0C0
C180
E380
7F00
3C00
ENDCHAR

STARTCHAR p
ENCODING 112
SWIDTH 660 0
DWIDTH 11 0
BBX 12 12 -1 -3
BITMAP
3BC0
3FE0
1C70
1830
1830
3060
38E0
3FC0
6700
6000
F000
F000
ENDCHAR

STARTCHAR q
ENCODING 113
SWIDTH 660 0
DWIDTH 11 0
BBX 12 12 0 -3
BITMAP
0F70
3FF0
71C0
60C0
C0C0
C180
E380
7F80
3B00
0300
0780
0780
ENDCHAR

STARTCHAR r
ENCODING 114
SWIDTH 380 0
DWIDTH 6 0
BBX 6 9 0 0
BITMAP
EC
FC
30
30
60
60
60
F0
F0
ENDCHAR

STARTCHAR s
ENCODING 115
SWIDTH 460 0
DWIDTH 7 0
BBX 7 9 0 0
BITMAP
3A
7E
66
60
38
0C
CC
FC
B8
ENDCHAR

STARTCHAR t
ENCODING 116
SWIDTH 340 0
DWIDTH 5 0
BBX 5 12 1 0
BITMAP
30
30
30
F8
F8
60
60
60
C0
C0
E0
E0
ENDCHAR

STARTCHAR u
ENCODING 117
SWIDTH 640 0
DWIDTH 10 0
BBX 8 9 1 0
BITMAP
E7
E7
63
63
C6
C6
CE
FF
77
ENDCHAR

STARTCHAR v
ENCODING 118
SWIDTH 600 0
DWIDTH 10 0
BBX 9 9 1 0
BITMAP
F780
F780
6300
6600
6600
2C00
3C00
3800
3800
ENDCHAR

STARTCHAR w
ENCODING 119
SWIDTH 880 0
DWIDTH 14 0
BBX 13 9 1 0
BITMAP
F378
F378
6730
6760
6D60
2DC0
39C0
3980
3180
ENDCHAR

STARTCHAR x
ENCODING 120
SWIDTH 620 0
DWIDTH 10 0
BBX 10 9 0 0
BITMAP
7BC0
7BC0
1300
1E00
0C00
1E00
3200
F780
F780
ENDCHAR

STARTCHAR y
ENCODING 121
SWIDTH 600 0
DWIDTH 10 0
BBX 10 12 0 -3
BITMAP
7BC0
7BC0
3180
3300
3200
1600
1C00
1800
3800
3000
F800
F800
ENDCHAR

STARTCHAR z
ENCODING 122
SWIDTH 460 0
DWIDTH 8 0
BBX 8 9 0 0
BITMAP
7F
7F
66
0C
18
30
66
FE
FE
ENDCHAR

STARTCHAR braceleft
ENCODING 123
SWIDTH 320 0
DWIDTH 5 0
BBX 6 14 0 -2
BITMAP
0C
18
30
30
30
60
C0
60
60
60
C0
C0
C0
60
ENDCHAR

STARTCHAR bar
ENCODING 124
SWIDTH 660 0
DWIDTH 11 0
BBX 4 12 4 0
BITMAP
30
30
30
30
60
60
60
60
C0
C0
C0
C0
ENDCHAR

STARTCHAR braceright
ENCODING 125
SWIDTH 320 0
DWIDTH 5 0
BBX 6 14 -1 -2
BITMAP
18
0C
0C
0C
18
18
0C
18
30
30
30
30
60
C0
ENDCHAR

STARTCHAR asciitilde
ENCODING 126
SWIDTH 660 0
DWIDTH 11 0
BBX 8 3 2 4
BITMAP
71
FF
8E
ENDCHAR

STARTCHAR exclamdown
ENCODING 161
SWIDTH 200 0
DWIDTH 3 0
BBX 4 12 -1 -3
BITMAP
30
30
00
30
30
20
60
60
40
C0
C0
C0
ENDCHAR

STARTCHAR cent
ENCODING 162
SWIDTH 580 0
DWIDTH 9 0
BBX 9 11 1 0
BITMAP
0C00
0C00
1D80
7F80
6300
C000
C600
FE00
7C00
3000
3000
ENDCHAR

STARTCHAR sterling
ENCODING 163
SWIDTH 680 0
DWIDTH 9 0
BBX 10 12 0 0
BITMAP
06C0
0FC0
1980
1980
1800
7F00
7F00
1800
1980
3180
FF00
FE00
ENDCHAR

STARTCHAR currency
ENCODING 164
SWIDTH 580 0
DWIDTH 9 0
BBX 10 8 0 1
BITMAP
36C0
3FC0
3180
6180
6180
6300
FF00
DB00
ENDCHAR

STARTCHAR yen
ENCODING 165
SWIDTH 720 0
DWIDTH 9 0
BBX 9 12 1 0
BITMAP
7B80
7B80
3300
3600
1600
7F00
1800
FE00
3000
3000
7800
7800
ENDCHAR

STARTCHAR brokenbar
ENCODING 166
SWIDTH 660 0
DWIDTH 11 0
BBX 4 12 4 0
BITMAP
30
30
30
30
00
00
00
00
C0
C0
C0
C0
ENDCHAR

STARTCHAR section
ENCODING 167
SWIDTH 460 0
DWIDTH 7 0
BBX 9 14 -1 -2
BITMAP
0F00
1F80
3180
3000
1C00
3F00
6300
6300
7E00
1C00
0600
C600
FC00
7800
ENDCHAR

STARTCHAR dieresis
ENCODING 168
SWIDTH 460 0
DWIDTH 7 0
BBX 5 2 3 10
BITMAP
D8
D8
ENDCHAR

STARTCHAR copyright
ENCODING 169
SWIDTH 820 0
DWIDTH 13 0
BBX 12 12 1 0
BITMAP
0FC0
1820
2770
6DD0
5890
D010
9010
90B0
9B20
CE60
61C0
3F00
ENDCHAR

STARTCHAR ordfeminine
ENCODING 170
SWIDTH 420 0
DWIDTH 7 0
BBX 7 7 1 5
BITMAP
36
6C
44
6C
36
00
FC
ENDCHAR

STARTCHAR guillemotleft
ENCODING 171
SWIDTH 360 0
DWIDTH 6 0
BBX 7 5 0 2
BITMAP
36
6C
D8
6C
24
ENDCHAR

STARTCHAR logicalnot
ENCODING 172
SWIDTH 660 0
DWIDTH 11 0
BBX 8 5 2 3
BITMAP
FF
FF
03
06
06
ENDCHAR

STARTCHAR hyphen
ENCODING 173
SWIDTH 320 0
DWIDTH 5 0
BBX 5 2 0 4
BITMAP
78
F0
ENDCHAR

STARTCHAR registered
ENCODING 174
SWIDTH 820 0
DWIDTH 13 0
BBX 12 12 1 0
BITMAP
0FC0
1860
27B0
64D0
4C50
C990
8E10
9B30
9120
D160
61C0
3F80
ENDCHAR

STARTCHAR macron
ENCODING 175
SWIDTH 520 0
DWIDTH 8 0
BBX 6 2 3 10
BITMAP
FC
FC
ENDCHAR

STARTCHAR degree
ENCODING 176
SWIDTH 400 0
DWIDTH 6 0
BBX 5 5 2 7
BITMAP
70
C8
88
98
70
ENDCHAR

STARTCHAR plusminus
ENCODING 177
SWIDTH 660 0
DWIDTH 11 0
BBX 9 9 1 1
BITMAP
0600
0600
7F80
7F80
1800
1800
0000
FF00
FF00
ENDCHAR

STARTCHAR twosuperior
ENCODING 178
SWIDTH 348 0
DWIDTH 6 0
BBX 6 7 1 5
BITMAP
38
6C
4C
18
60
D8
F8
ENDCHAR

STARTCHAR threesuperior
ENCODING 179
SWIDTH 348 0
DWIDTH 6 0
BBX 6 7 1 5
BITMAP
38
6C
0C
30
18
D8
70
ENDCHAR

STARTCHAR acute
ENCODING 180
SWIDTH 460 0
DWIDTH 7 0
BBX 5 3 3 10
BITMAP
38
70
C0
ENDCHAR

STARTCHAR mu
ENCODING 181
SWIDTH 640 0
DWIDTH 10 0
BBX 9 12 0 -3
BITMAP
7380
7380
3180
3180
6300
6300
6700
7F80
FB80
C000
C000
C000
ENDCHAR

STARTCHAR paragraph
ENCODING 182
SWIDTH 540 0
DWIDTH 9 0
BBX 9 14 1 -2
BITMAP
3F80
7F80
F900
F900
FB00
F200
7200
1600
3400
2400
2400
6C00
4800
4800
ENDCHAR

STARTCHAR periodcentered
ENCODING 183
SWIDTH 300 0
DWIDTH 4 0
BBX 2 2 1 4
BITMAP
C0
C0
ENDCHAR

STARTCHAR cedilla
ENCODING 184
SWIDTH 360 0
DWIDTH 6 0
BBX 4 4 0 -4
BITMAP
60
F0
30
E0
ENDCHAR

STARTCHAR onesuperior
ENCODING 185
SWIDTH 348 0
DWIDTH 6 0
BBX 4 7 2 5
BITMAP
70
30
30
60
60
60
F0
ENDCHAR

STARTCHAR ordmasculine
ENCODING 186
SWIDTH 360 0
DWIDTH 6 0
BBX 6 7 1 5
BITMAP
38
6C
44
6C
38
00
F8
ENDCHAR

STARTCHAR guillemotright
ENCODING 187
SWIDTH 360 0
DWIDTH 6 0
BBX 7 5 0 2
BITMAP
48
6C
36
6C
D8
ENDCHAR

STARTCHAR onequarter
ENCODING 188
SWIDTH 870 0
DWIDTH 14 0
BBX 11 12 2 0
BITMAP
70C0
3180
3180
6300
6600
66C0
FDC0
0D40
1AC0
37E0
3080
61C0
ENDCHAR

STARTCHAR onehalf
ENCODING 189
SWIDTH 870 0
DWIDTH 14 0
BBX 12 12 2 0
BITMAP
70C0
3180
3180
6300
6600
66E0
FDB0
0D30
1860
3180
3360
63E0
ENDCHAR

STARTCHAR threequarters
ENCODING 190
SWIDTH 870 0
DWIDTH 14 0
BBX 12 12 1 0
BITMAP
3860
6CC0
0CC0
3180
1B00
DB60
76E0
06A0
0D60
1BF0
1840
30E0
ENDCHAR

STARTCHAR questiondown
ENCODING 191
SWIDTH 540 0
DWIDTH 8 0
BBX 7 12 0 -3
BITMAP
06
06
00
0C
0C
38
60
C0
C6
C6
7C
38
ENDCHAR

STARTCHAR Agrave
ENCODING 192
SWIDTH 780 0
DWIDTH 12 0
BBX 12 16 0 0
BITMAP
0E00
0600
0300
0000
0780
0780
0380
0780
0CC0
0CC0
18C0
3FE0
3FE0
6060
F0F0
F0F0
ENDCHAR

STARTCHAR Aacute
ENCODING 193
SWIDTH 780 0
DWIDTH 12 0
BBX 12 16 0 0
BITMAP
00E0
01C0
0300
0000
0780
0780
0380
0780
0CC0
0CC0
18C0
3FE0
3FE0
6060
F0F0
F0F0
ENDCHAR

STARTCHAR Acircumflex
ENCODING 194
SWIDTH 780 0
DWIDTH 12 0
BBX 12 16 0 0
BITMAP
0380
0780
0CC0
0000
0780
0780
0380
0780
0CC0
0CC0
18C0
3FE0
3FE0
6060
F0F0
F0F0
ENDCHAR

STARTCHAR Atilde
ENCODING 195
SWIDTH 780 0
DWIDTH 12 0
BBX 12 15 0 0
BITMAP
0740
0B80
0000
0780
0780
0380
0780
0CC0
0CC0
18C0
3FE0
3FE0
6060
F0F0
F0F0
ENDCHAR

STARTCHAR Adieresis
ENCODING 196
SWIDTH 780 0
DWIDTH 12 0
BBX 12 15 0 0
BITMAP
06C0
06C0
0000
0780
0780
0380
0780
0CC0
0CC0
18C0
3FE0
3FE0
6060
F0F0
F0F0
ENDCHAR

STARTCHAR Aring
ENCODING 197
SWIDTH 780 0
DWIDTH 12 0
BBX 12 16 0 0
BITMAP
0300
0480
0480
0300
0780
0780
0380
0780
0CC0
0CC0
18C0
3FE0
3FE0
6060
F0F0
F0F0
ENDCHAR

STARTCHAR AE
ENCODING 198
SWIDTH 980 0
DWIDTH 15 0
BBX 17 12 0 0
BITMAP
03FF80
03FF80
01E300
03C300
06C000
0CF800
0FF800
1FC000
318600
618600
F3FC00
F3FC00
ENDCHAR

STARTCHAR Ccedilla
ENCODING 199
SWIDTH 760 0
DWIDTH 12 0
BBX 12 16 1 -4
BITMAP
0FB0
3FF0
70E0
6060
E000
C000
C000
C000
C0C0
E1C0
7F80
3E00
1800
3C00
0C00
3800
ENDCHAR

STARTCHAR Egrave
ENCODING 200
SWIDTH 580 0
DWIDTH 9 0
BBX 11 16 0 0
BITMAP
0E00
0600
0300
0000
3FE0
3FE0
18C0
18C0
3000
3E00
3E00
3000
6180
6180
FF00
FF00
ENDCHAR

STARTCHAR Eacute
ENCODING 201
SWIDTH 580 0
DWIDTH 9 0
BBX 11 16 0 0
BITMAP
01C0
0380
0600
0000
3FE0
3FE0
18C0
18C0
3000
3E00
3E00
3000
6180
6180
FF00
FF00
ENDCHAR

STARTCHAR Ecircumflex
ENCODING 202
SWIDTH 580 0
DWIDTH 9 0
BBX 11 16 0 0
BITMAP
0380
0780
0CC0
0000
3FE0
3FE0
18C0
18C0
3000
3E00
3E00
3000
6180
6180
FF00
FF00
ENDCHAR

STARTCHAR Edieresis
ENCODING 203
SWIDTH 580 0
DWIDTH 9 0
BBX 11 15 0 0
BITMAP
0CC0
0CC0
0000
3FE0
3FE0
18C0
18C0
3000
3E00
3E00
3000
6180
6180
FF00
FF00
ENDCHAR

STARTCHAR Igrave
ENCODING 204
SWIDTH 340 0
DWIDTH 5 0
BBX 6 16 0 0
BITMAP
38
18
0C
00
3C
3C
18
18
30
30
30
30
60
60
F0
F0
ENDCHAR

STARTCHAR Iacute
ENCODING 205
SWIDTH 340 0
DWIDTH 5 0
BBX 8 16 0 0
BITMAP
07
0E
18
00
3C
3C
18
18
30
30
30
30
60
60
F0
F0
ENDCHAR

STARTCHAR Icircumflex
ENCODING 206
SWIDTH 340 0
DWIDTH 5 0
BBX 8 16 0 0
BITMAP
0E
1E
33
00
3C
3C
18
18
30
30
30
30
60
60
F0
F0
ENDCHAR

STARTCHAR Idieresis
ENCODING 207
SWIDTH 340 0
DWIDTH 5 0
BBX 7 15 0 0
BITMAP
36
36
00
3C
3C
18
18
30
30
30
30
60
60
F0
F0
ENDCHAR

STARTCHAR Eth
ENCODING 208
SWIDTH 740 0
DWIDTH 12 0
BBX 12 12 0 0
BITMAP
3FC0
3FE0
1870
1830
3030
7C30
7C30
3060
6060
61C0
FF80
FE00
ENDCHAR

STARTCHAR Ntilde
ENCODING 209
SWIDTH 800 0
DWIDTH 13 0
BBX 14 15 0 0
BITMAP
03A0
05C0
0000
3C3C
3C3C
1E18
1E18
3730
3330
33B0
31B0
61E0
60E0
F0E0
F060
ENDCHAR

STARTCHAR Ograve
ENCODING 210
SWIDTH 780 0
DWIDTH 12 0
BBX 11 16 1 0
BITMAP
0700
0300
0180
0000
0F80
3FC0
78E0
6060
E060
C060
C060
C0E0
C0C0
E3C0
7F80
3E00
ENDCHAR

STARTCHAR Oacute
ENCODING 211
SWIDTH 780 0
DWIDTH 12 0
BBX 11 16 1 0
BITMAP
01C0
0380
0600
0000
0F80
3FC0
78E0
6060
E060
C060
C060
C0E0
C0C0
E3C0
7F80
3E00
ENDCHAR

STARTCHAR Ocircumflex
ENCODING 212
SWIDTH 780 0
DWIDTH 12 0
BBX 11 16 1 0
BITMAP
0700
0F00
1980
0000
0F80
3FC0
78E0
6060
E060
C060
C060
C0E0
C0C0
E3C0
7F80
3E00
ENDCHAR

STARTCHAR Otilde
ENCODING 213
SWIDTH 780 0
DWIDTH 12 0
BBX 11 15 1 0
BITMAP
0E80
1700
0000
0F80
3FC0
78E0
6060
E060
C060
C060
C0E0
C0C0
E3C0
7F80
3E00
ENDCHAR

STARTCHAR Odieresis
ENCODING 214
SWIDTH 780 0
DWIDTH 12 0
BBX 11 15 1 0
BITMAP
0D80
0D80
0000
0F80
3FC0
78E0
6060
E060
C060
C060
C0E0
C0C0
E3C0
7F80
3E00
ENDCHAR

STARTCHAR multiply
ENCODING 215
SWIDTH 660 0
DWIDTH 11 0
BBX 10 8 1 1
BITMAP
2080
71C0
3B80
1E00
1E00
7700
E380
4100
ENDCHAR

STARTCHAR Oslash
ENCODING 216
SWIDTH 780 0
DWIDTH 12 0
BBX 15 12 -1 0
BITMAP
03E6
0FFC
1C38
1878
38D8
3198
3318
3638
3C30
3870
7FE0
CF80
ENDCHAR

STARTCHAR Ugrave
ENCODING 217
SWIDTH 700 0
DWIDTH 11 0
BBX 11 16 1 0
BITMAP
0E00
0600
0300
0000
79E0
79E0
30C0
30C0
6180
6180
6180
C300
C300
C700
FE00
7C00
ENDCHAR

STARTCHAR Uacute
ENCODING 218
SWIDTH 700 0
DWIDTH 11 0
BBX 11 16 1 0
BITMAP
01C0
0380
0600
0000
79E0
79E0
30C0
30C0
6180
6180
6180
C300
C300
C700
FE00
7C00
ENDCHAR

STARTCHAR Ucircumflex
ENCODING 219
SWIDTH 700 0
DWIDTH 11 0
BBX 11 16 1 0
BITMAP
0380
0780
0CC0
0000
79E0
79E0
30C0
30C0
6180
6180
6180
C300
C300
C700
FE00
7C00
ENDCHAR

STARTCHAR Udieresis
ENCODING 220
SWIDTH 700 0
DWIDTH 11 0
BBX 11 15 1 0
BITMAP
0D80
0D80
0000
79E0
79E0
30C0
30C0
6180
6180
6180
C300
C300
C700
FE00
7C00
ENDCHAR

STARTCHAR Yacute
ENCODING 221
SWIDTH 680 0
DWIDTH 11 0
BBX 10 16 2 0
BITMAP
0380
0700
0C00
0000
F3C0
F3C0
6180
3300
3600
1C00
1800
1800
3000
3000
F800
F800
ENDCHAR

STARTCHAR Thorn
ENCODING 222
SWIDTH 600 0
DWIDTH 10 0
BBX 10 12 0 0
BITMAP
3C00
3800
1F80
1FC0
30C0
30C0
3180
3F80
7E00
6000
F000
F000
ENDCHAR

STARTCHAR germandbls
ENCODING 223
SWIDTH 600 0
DWIDTH 10 0
BBX 10 12 0 0
BITMAP
0700
1F80
18C0
30C0
3180
3700
3780
60C0
60C0
61C0
EF80
EE00
ENDCHAR

STARTCHAR agrave
ENCODING 224
SWIDTH 660 0
DWIDTH 11 0
BBX 12 13 0 0
BITMAP
0700
0300
0180
0000
0F70
3FF0
71C0
60C0
C0C0
C180
E380
7FC0
3DC0
ENDCHAR

STARTCHAR aacute
ENCODING 225
SWIDTH 660 0
DWIDTH 11 0
BBX 12 13 0 0
BITMAP
00E0
01C0
0300
0000
0F70
3FF0
71C0
60C0
C0C0
C180
E380
7FC0
3DC0
ENDCHAR

STARTCHAR acircumflex
ENCODING 226
SWIDTH 660 0
DWIDTH 11 0
BBX 12 13 0 0
BITMAP
0380
0780
0CC0
0000
0F70
3FF0
71C0
60C0
C0C0
C180
E380
7FC0
3DC0
ENDCHAR

STARTCHAR atilde
ENCODING 227
SWIDTH 660 0
DWIDTH 11 0
BBX 12 12 0 0
BITMAP
03A0
05C0
0000
0F70
3FF0
71C0
60C0
C0C0
C180
E380
7FC0
3DC0
ENDCHAR

STARTCHAR adieresis
ENCODING 228
SWIDTH 660 0
DWIDTH 11 0
BBX 12 12 0 0
BITMAP
0D80
0D80
0000
0F70
3FF0
71C0
60C0
C0C0
C180
E380
7FC0
3DC0
ENDCHAR

STARTCHAR aring
ENCODING 229
SWIDTH 660 0
DWIDTH 11 0
BBX 12 13 0 0
BITMAP
0300
0480
0300
0000
0F70
3FF0
71C0
60C0
C0C0
C180
E380
7FC0
3DC0
ENDCHAR

STARTCHAR ae
ENCODING 230
SWIDTH 1040 0
DWIDTH 16 0
BBX 16 9 0 0
BITMAP
0EBC
3FFE
71C7
6183
C1FF
C380
E3C6
7FFE
3D78
ENDCHAR

STARTCHAR ccedilla
ENCODING 231
SWIDTH 580 0
DWIDTH 9 0
BBX 10 13 0 -4
BITMAP
0EC0
3FC0
7180
6000
C000
C000
E300
7F00
3C00
1000
3C00
0C00
3800
ENDCHAR

STARTCHAR egrave
ENCODING 232
SWIDTH 580 0
DWIDTH 9 0
BBX 9 13 0 0
BITMAP
1C00
0C00
0600
0000
1E00
7F00
6380
C180
FF80
C000
E300
7F00
3C00
ENDCHAR

STARTCHAR eacute
ENCODING 233
SWIDTH 580 0
DWIDTH 9 0
BBX 9 13 0 0
BITMAP
0380
0700
0C00
0000
1E00
7F00
6380
C180
FF80
C000
E300
7F00
3C00
ENDCHAR

STARTCHAR ecircumflex
ENCODING 234
SWIDTH 580 0
DWIDTH 9 0
BBX 9 13 0 0
BITMAP
0E00
1E00
3300
0000
1E00
7F00
6380
C180
FF80
C000
E300
7F00
3C00
ENDCHAR

STARTCHAR edieresis
ENCODING 235
SWIDTH 580 0
DWIDTH 9 0
BBX 9 12 0 0
BITMAP
1B00
1B00
0000
1E00
7F00
6380
C180
FF80
C000
E300
7F00
3C00
ENDCHAR

STARTCHAR igrave
ENCODING 236
SWIDTH 300 0
DWIDTH 5 0
BBX 5 13 0 0
BITMAP
70
30
18
00
70
70
30
30
60
60
60
F0
F0
ENDCHAR

STARTCHAR iacute
ENCODING 237
SWIDTH 300 0
DWIDTH 5 0
BBX 6 13 0 0
BITMAP
1C
38
60
00
70
70
30
30
60
60
60
F0
F0
ENDCHAR

STARTCHAR icircumflex
ENCODING 238
SWIDTH 300 0
DWIDTH 5 0
BBX 6 13 0 0
BITMAP
38
78
CC
00
70
70
30
30
60
60
60
F0
F0
ENDCHAR

STARTCHAR idieresis
ENCODING 239
SWIDTH 300 0
DWIDTH 5 0
BBX 6 12 0 0
BITMAP
CC
CC
00
70
70
30
30
60
60
60
F0
F0
ENDCHAR

STARTCHAR eth
ENCODING 240
SWIDTH 580 0
DWIDTH 10 0
BBX 10 13 0 0
BITMAP
6000
39C0
0E00
7E00
0F00
3F80
71C0
60C0
C0C0
C180
E380
7F00
3C00
ENDCHAR

STARTCHAR ntilde
ENCODING 241
SWIDTH 640 0
DWIDTH 10 0
BBX 9 12 0 0
BITMAP
0E80
1700
0000
7700
7F80
3980
3180
3180
6300
6300
F780
F780
ENDCHAR

STARTCHAR ograve
ENCODING 242
SWIDTH 580 0
DWIDTH 10 0
BBX 10 13 0 0
BITMAP
0E00
0600
0300
0000
0F00
3F80
71C0
60C0
C0C0
C180
E380
7F00
3C00
ENDCHAR

STARTCHAR oacute
ENCODING 243
SWIDTH 580 0
DWIDTH 10 0
BBX 10 13 0 0
BITMAP
01C0
0380
0600
0000
0F00
3F80
71C0
60C0
C0C0
C180
E380
7F00
3C00
ENDCHAR

STARTCHAR ocircumflex
ENCODING 244
SWIDTH 580 0
DWIDTH 10 0
BBX 10 13 0 0
BITMAP
0700
0F00
1980
0000
0F00
3F80
71C0
60C0
C0C0
C180
E380
7F00
3C00
ENDCHAR

STARTCHAR otilde
ENCODING 245
SWIDTH 580 0
DWIDTH 10 0
BBX 10 12 0 0
BITMAP
0E80
1700
0000
0F00
3F80
71C0
60C0
C0C0
C180
E380
7F00
3C00
ENDCHAR

STARTCHAR odieresis
ENCODING 246
SWIDTH 580 0
DWIDTH 10 0
BBX 10 12 0 0
BITMAP
0D80
0D80
0000
0F00
3F80
71C0
60C0
C0C0
C180
E380
7F00
3C00
ENDCHAR

STARTCHAR divide
ENCODING 247
SWIDTH 660 0
DWIDTH 11 0
BBX 7 8 2 1
BITMAP
18
18
00
FE
FE
00
30
30
ENDCHAR

STARTCHAR oslash
ENCODING 248
SWIDTH 600 0
DWIDTH 10 0
BBX 10 9 0 0
BITMAP
0EC0
3F80
73C0
66C0
CCC0
D980
F380
7F00
DC00
ENDCHAR

STARTCHAR ugrave
ENCODING 249
SWIDTH 640 0
DWIDTH 10 0
BBX 8 13 1 0
BITMAP
38
18
0C
00
E7
E7
63
63
C6
C6
CE
FF
77
ENDCHAR

STARTCHAR uacute
ENCODING 250
SWIDTH 640 0
DWIDTH 10 0
BBX 8 13 1 0
BITMAP
07
0E
18
00
E7
E7
63
63
C6
C6
CE
FF
77
ENDCHAR

STARTCHAR ucircumflex
ENCODING 251
SWIDTH 640 0
DWIDTH 10 0
BBX 8 13 1 0
BITMAP
0E
1E
33
00
E7
E7
63
63
C6
C6
CE
FF
77
ENDCHAR

STARTCHAR udieresis
ENCODING 252
SWIDTH 640 0
DWIDTH 10 0
BBX 8 12 1 0
BITMAP
36
36
00
E7
E7
63
63
C6
C6
CE
FF
77
ENDCHAR

STARTCHAR yacute
ENCODING 253
SWIDTH 600 0
DWIDTH 10 0
BBX 10 16 0 -3
BITMAP
01C0
0380
0600
0000
7BC0
7BC0
3180
3300
3200
1600
1C00
1800
3800
3000
F800
F800
ENDCHAR

STARTCHAR thorn
ENCODING 254
SWIDTH 660 0
DWIDTH 11 0
BBX 12 15 -1 -3
BITMAP
1C00
1C00
0C00
0DC0
1FE0
1C70
1830
1830
3060
38E0
3FC0
6700
6000
F000
F000
ENDCHAR

STARTCHAR ydieresis
ENCODING 255
SWIDTH 600 0
DWIDTH 10 0
BBX 10 15 0 -3
BITMAP
1B00
1B00
0000
7BC0
7BC0
3180
3300
3200
1600
1C00
1800
3800
3000
F800
F800
ENDCHAR
ENDFONT
